<?xml version="1.0" encoding="UTF-8" standalone="no"?>
<svg
   xmlns:dc="http://purl.org/dc/elements/1.1/"
   xmlns:cc="http://creativecommons.org/ns#"
   xmlns:rdf="http://www.w3.org/1999/02/22-rdf-syntax-ns#"
   xmlns:svg="http://www.w3.org/2000/svg"
   xmlns="http://www.w3.org/2000/svg"
   id="svg4275"
   version="1.1"
   height="380px"
   width="15px">
  <metadata
     id="metadata15">
    <rdf:RDF>
      <cc:Work
         rdf:about="">
        <dc:format>image/svg+xml</dc:format>
        <dc:type
           rdf:resource="http://purl.org/dc/dcmitype/StillImage" />
      </cc:Work>
    </rdf:RDF>
  </metadata>
  <defs
     id="defs13" />
  <g
     id="background">
    <path
       id="rect4255"
       d="m 0,0 15,0 0,380 -15,0 z"
       style="fill:#294f77;stroke:none" />
    <path
       id="path4279"
       d="M 0,380 0,0 15,0 14,1 1,1 1,379 Z"
       style="fill:#3a6ea5;fill-rule:nonzero;stroke:none" />
    <path
       id="path4281"
       d="m 0,380 15,0 0,-380 -1,1 0,378 -13,0 z"
       style="fill:#182d44;fill-rule:nonzero;stroke:none" />
  </g>
  <g
     style="font-size:12px;font-family:'DejaVu Sans';fill:#719fcf"
     font-size="12"
     id="logo">
    <path
       id="path4136"
       d="M 1,10.64609 A 2.2519786,1.9846094 0 0 0 3.25192,12.63074 2.2519786,1.9846094 0 0 0 3.78359,12.57194 5.1693144,8.1692063 0 0 0 8.83071,19 5.1693144,8.1692063 0 0 0 14,10.83085 5.1693144,8.1692063 0 0 0 11.11985,3.51722 4.2480502,3.0461447 0 0 0 12.97641,1 L 10.61869,1 A 1.9448905,1.3384576 0 0 1 8.67718,2.2923 1.9448905,1.3384576 0 0 1 6.73455,1 L 4.48039,1 a 4.2480502,3.0461447 0 0 0 1.97944,2.57413 5.1693144,8.1692063 0 0 0 -2.79842,7.25672 5.1693144,8.1692063 0 0 0 0.0119,0.37318 2.0472531,1.7538409 0 0 1 -1.00162,-0.69638 l -1.66609,0 A 2.2519786,1.9846094 0 0 0 1,10.64609 Z m 5.83461,3.27707 A 1.8425278,1.6615335 0 0 1 8.67718,12.2616 1.8425278,1.6615335 0 0 1 10.51975,13.92316 1.8425278,1.6615335 0 0 1 8.67718,15.58461 1.8425278,1.6615335 0 0 1 6.83461,13.92316 Z M 7.2441,10.13851 A 1.4330772,1.2923038 0 0 1 8.67718,8.8462 1.4330772,1.2923038 0 0 1 10.11026,10.13851 1.4330772,1.2923038 0 0 1 8.67718,11.43081 1.4330772,1.2923038 0 0 1 7.2441,10.13851 Z M 7.63302,7.12923 A 1.0236265,0.92307415 0 0 1 8.65675,6.20619 1.0236265,0.92307415 0 0 1 9.68034,7.12923 1.0236265,0.92307415 0 0 1 8.65675,8.0524 1.0236265,0.92307415 0 0 1 7.63302,7.12923 Z" />
    <g
       id="logotext">
      <g
         id="text4286"
         style=""
         transform="matrix(0,-1,1,0,0,0)">
        <path
           id="path19"
           style=""
           d="m -376.47266,2.3691416 1.76368,0 2.23242,5.953125 2.24414,-5.953125 1.76367,0 0,8.7480464 -1.1543,0 0,-7.6816402 -2.25586,6 -1.18945,0 -2.25586,-6 0,7.6816402 -1.14844,0 0,-8.7480464 z" />
        <path
           id="path21"
           style=""
           d="m -363.61719,5.3105478 q -0.86718,0 -1.37109,0.6796875 -0.50391,0.6738282 -0.50391,1.8515625 0,1.1777344 0.49805,1.8574219 0.50391,0.6738283 1.37695,0.6738283 0.86133,0 1.36524,-0.6796877 0.5039,-0.6796875 0.5039,-1.8515625 0,-1.1660156 -0.5039,-1.8457031 -0.50391,-0.6855469 -1.36524,-0.6855469 z m 0,-0.9140625 q 1.40625,0 2.20899,0.9140625 0.80273,0.9140625 0.80273,2.53125 0,1.6113282 -0.80273,2.5312502 -0.80274,0.914062 -2.20899,0.914062 -1.41211,0 -2.21484,-0.914062 -0.79688,-0.919922 -0.79688,-2.5312502 0,-1.6171875 0.79688,-2.53125 0.80273,-0.9140625 2.21484,-0.9140625 z" />
        <path
           id="path23"
           style=""
           d="m -354.50586,5.5507822 0,-3.5507812 1.07813,0 0,9.117187 -1.07813,0 0,-0.984375 q -0.33984,0.585938 -0.86133,0.873047 -0.51562,0.28125 -1.24218,0.28125 -1.18946,0 -1.93946,-0.949218 -0.74414,-0.9492192 -0.74414,-2.4960942 0,-1.546875 0.74414,-2.4960937 0.75,-0.9492188 1.93946,-0.9492188 0.72656,0 1.24218,0.2871094 0.52149,0.28125 0.86133,0.8671875 z m -3.67383,2.2910156 q 0,1.1894532 0.48633,1.8691407 0.49219,0.6738285 1.34766,0.6738285 0.85547,0 1.34765,-0.6738285 0.49219,-0.6796875 0.49219,-1.8691407 0,-1.1894531 -0.49219,-1.8632812 -0.49218,-0.6796875 -1.34765,-0.6796875 -0.85547,0 -1.34766,0.6796875 -0.48633,0.6738281 -0.48633,1.8632812 z" />
        <path
           id="path25"
           style=""
           d="m -351.31836,8.5273447 0,-3.9726562 1.07813,0 0,3.9316406 q 0,0.9316406 0.36328,1.4003906 0.36328,0.4628903 1.08984,0.4628903 0.87305,0 1.37695,-0.5566403 0.50977,-0.5566406 0.50977,-1.5175781 l 0,-3.7207031 1.07812,0 0,6.5624995 -1.07812,0 0,-1.007812 q -0.39258,0.597656 -0.91406,0.890625 -0.51563,0.287109 -1.20117,0.287109 -1.13086,0 -1.7168,-0.703125 -0.58594,-0.7031247 -0.58594,-2.0566403 z m 2.71289,-4.1308594 0,0 z" />
        <path
           id="path27"
           style=""
           d="m -343.58984,2.000001 1.07812,0 0,9.117187 -1.07812,0 0,-9.117187 z" />
        <path
           id="path29"
           style=""
           d="m -334.64844,7.5664072 0,0.5273438 -4.95703,0 q 0.0703,1.1132812 0.66797,1.6992187 0.60352,0.5800783 1.67578,0.5800783 0.6211,0 1.20117,-0.152344 0.58594,-0.152344 1.16016,-0.4570312 l 0,1.0195312 q -0.58008,0.246094 -1.18945,0.375 -0.60938,0.128906 -1.23633,0.128906 -1.57031,0 -2.49024,-0.914062 -0.91406,-0.9140627 -0.91406,-2.4726564 0,-1.6113281 0.86719,-2.5546875 0.87305,-0.9492188 2.34961,-0.9492188 1.32422,0 2.0918,0.8554688 0.77343,0.8496094 0.77343,2.3144531 z m -1.07812,-0.3164062 q -0.0117,-0.8847657 -0.49805,-1.4121094 -0.48047,-0.5273438 -1.27734,-0.5273438 -0.90235,0 -1.44727,0.5097657 -0.53906,0.5097656 -0.62109,1.4355468 l 3.84375,-0.00586 z" />
        <path
           id="path31"
           style=""
           d="m -327.82812,6.9394541 0,3.2050779 1.89843,0 q 0.95508,0 1.41211,-0.3925779 0.46289,-0.3984375 0.46289,-1.2128906 0,-0.8203125 -0.46289,-1.2070313 -0.45703,-0.3925781 -1.41211,-0.3925781 l -1.89843,0 z m 0,-3.5976563 0,2.6367188 1.75195,0 q 0.86719,0 1.28906,-0.3222656 0.42774,-0.328125 0.42774,-0.9960938 0,-0.6621094 -0.42774,-0.9902344 -0.42187,-0.328125 -1.28906,-0.328125 l -1.75195,0 z m -1.1836,-0.9726562 3.02344,0 q 1.35351,0 2.08594,0.5625 0.73242,0.5625 0.73242,1.5996094 0,0.8027343 -0.375,1.2773437 -0.375,0.4746094 -1.10156,0.5917969 0.87304,0.1875 1.35351,0.7851562 0.48633,0.5917969 0.48633,1.4824219 0,1.171875 -0.79688,1.8105473 -0.79687,0.638671 -2.26757,0.638671 l -3.14063,0 0,-8.7480464 z" />
        <path
           id="path33"
           style=""
           d="m -317.0293,5.562501 q -0.18164,-0.1054688 -0.39843,-0.1523438 -0.21094,-0.052734 -0.46875,-0.052734 -0.91407,0 -1.40625,0.5976563 -0.48633,0.5917969 -0.48633,1.7050781 l 0,3.4570308 -1.08399,0 0,-6.5624995 1.08399,0 0,1.0195312 q 0.33984,-0.5976562 0.88476,-0.8847656 0.54493,-0.2929688 1.32422,-0.2929688 0.11133,0 0.2461,0.017578 0.13476,0.011719 0.29882,0.041016 l 0.006,1.1074219 z" />
        <path
           id="path35"
           style=""
           d="m -313.60156,5.3105478 q -0.86719,0 -1.3711,0.6796875 -0.5039,0.6738282 -0.5039,1.8515625 0,1.1777344 0.49804,1.8574219 0.50391,0.6738283 1.37696,0.6738283 0.86133,0 1.36523,-0.6796877 0.50391,-0.6796875 0.50391,-1.8515625 0,-1.1660156 -0.50391,-1.8457031 -0.5039,-0.6855469 -1.36523,-0.6855469 z m 0,-0.9140625 q 1.40625,0 2.20898,0.9140625 0.80274,0.9140625 0.80274,2.53125 0,1.6113282 -0.80274,2.5312502 -0.80273,0.914062 -2.20898,0.914062 -1.41211,0 -2.21485,-0.914062 -0.79687,-0.919922 -0.79687,-2.5312502 0,-1.6171875 0.79687,-2.53125 0.80274,-0.9140625 2.21485,-0.9140625 z" />
        <path
           id="path37"
           style=""
           d="m -309.43555,4.5546885 1.07813,0 1.34765,5.1210937 1.3418,-5.1210937 1.27149,0 1.34765,5.1210937 1.3418,-5.1210937 1.07812,0 -1.71679,6.5624995 -1.27149,0 -1.41211,-5.3789058 -1.41797,5.3789058 -1.27148,0 -1.7168,-6.5624995 z" />
        <path
           id="path39"
           style=""
           d="m -294.80469,4.7480478 0,1.0195313 q -0.45703,-0.234375 -0.94922,-0.3515625 -0.49218,-0.1171875 -1.01953,-0.1171875 -0.80273,0 -1.20703,0.2460937 -0.39844,0.2460938 -0.39844,0.7382813 0,0.375 0.28711,0.5917969 0.28711,0.2109375 1.1543,0.4042968 l 0.36914,0.082031 q 1.14844,0.2460937 1.62891,0.6972656 0.48633,0.4453125 0.48633,1.2480469 0,0.9140624 -0.72657,1.4472654 -0.7207,0.533203 -1.98633,0.533203 -0.52734,0 -1.10156,-0.105468 -0.56836,-0.09961 -1.20117,-0.304688 l 0,-1.1132812 q 0.59766,0.3105472 1.17773,0.4687502 0.58008,0.152344 1.14844,0.152344 0.76172,0 1.17188,-0.257813 0.41015,-0.2636718 0.41015,-0.7382812 0,-0.4394531 -0.29882,-0.6738281 -0.29297,-0.234375 -1.29493,-0.4511719 l -0.375,-0.087891 q -1.00195,-0.2109375 -1.44726,-0.6445312 -0.44531,-0.4394532 -0.44531,-1.2011719 0,-0.9257813 0.65625,-1.4296875 0.65625,-0.5039063 1.86328,-0.5039063 0.59765,0 1.125,0.087891 0.52734,0.087891 0.97265,0.2636718 z" />
        <path
           id="path41"
           style=""
           d="m -287.11719,7.5664072 0,0.5273438 -4.95703,0 q 0.0703,1.1132812 0.66797,1.6992187 0.60352,0.5800783 1.67578,0.5800783 0.6211,0 1.20117,-0.152344 0.58594,-0.152344 1.16016,-0.4570312 l 0,1.0195312 q -0.58008,0.246094 -1.18945,0.375 -0.60938,0.128906 -1.23633,0.128906 -1.57031,0 -2.49024,-0.914062 -0.91406,-0.9140627 -0.91406,-2.4726564 0,-1.6113281 0.86719,-2.5546875 0.87305,-0.9492188 2.34961,-0.9492188 1.32422,0 2.0918,0.8554688 0.77343,0.8496094 0.77343,2.3144531 z m -1.07812,-0.3164062 q -0.0117,-0.8847657 -0.49805,-1.4121094 -0.48047,-0.5273438 -1.27734,-0.5273438 -0.90235,0 -1.44727,0.5097657 -0.53906,0.5097656 -0.62109,1.4355468 l 3.84375,-0.00586 z" />
        <path
           id="path43"
           style=""
           d="m -281.54492,5.562501 q -0.18164,-0.1054688 -0.39844,-0.1523438 -0.21094,-0.052734 -0.46875,-0.052734 -0.91406,0 -1.40625,0.5976563 -0.48633,0.5917969 -0.48633,1.7050781 l 0,3.4570308 -1.08398,0 0,-6.5624995 1.08398,0 0,1.0195312 q 0.33985,-0.5976562 0.88477,-0.8847656 0.54492,-0.2929688 1.32422,-0.2929688 0.11133,0 0.24609,0.017578 0.13477,0.011719 0.29883,0.041016 l 0.006,1.1074219 z" />
      </g>
    </g>
  </g>
</svg>
