<?xml version="1.0" encoding="UTF-8" standalone="no"?>
<svg
   xmlns:dc="http://purl.org/dc/elements/1.1/"
   xmlns:cc="http://creativecommons.org/ns#"
   xmlns:rdf="http://www.w3.org/1999/02/22-rdf-syntax-ns#"
   xmlns:svg="http://www.w3.org/2000/svg"
   xmlns="http://www.w3.org/2000/svg"
   id="svg2"
   version="1.1"
   height="380px"
   width="300px">
  <metadata
     id="metadata16">
    <rdf:RDF>
      <cc:Work
         rdf:about="">
        <dc:format>image/svg+xml</dc:format>
        <dc:type
           rdf:resource="http://purl.org/dc/dcmitype/StillImage" />
      </cc:Work>
    </rdf:RDF>
  </metadata>
  <defs
     id="defs14" />
  <g
     id="background">
    <path
       id="rect4255"
       d="m 0,0 300,0 0,380 -300,0 z"
       style="fill:#294f77;stroke:none" />
    <path
       id="path4230"
       d="M 0,380 0,0 300,0 299,1 1,1 1,379 Z"
       style="fill:#3a6ea5;fill-rule:nonzero;stroke:none" />
    <path
       id="path4232"
       d="m 0,380 300,0 0,-380 -1,1 0,378 -298,0 z"
       style="fill:#182d44;fill-rule:nonzero;stroke:none" />
  </g>
  <g
     style="font-size:12px;font-family:'DejaVu Sans';fill:#719fcf"
     font-size="12"
     id="logo">
    <path
       id="path4136"
       d="m 289.35391,366 a 1.9846094,2.2519786 0 0 0 -1.98465,2.25192 1.9846094,2.2519786 0 0 0 0.0588,0.53167 A 8.1692063,5.1693144 0 0 0 281,373.83071 8.1692063,5.1693144 0 0 0 289.16915,379 8.1692063,5.1693144 0 0 0 296.48278,376.11985 3.0461447,4.2480502 0 0 0 299,377.97641 l 0,-2.35772 a 1.3384576,1.9448905 0 0 1 -1.2923,-1.94151 1.3384576,1.9448905 0 0 1 1.2923,-1.94263 l 0,-2.25416 a 3.0461447,4.2480502 0 0 0 -2.57413,1.97944 8.1692063,5.1693144 0 0 0 -7.25672,-2.79842 8.1692063,5.1693144 0 0 0 -0.37318,0.0119 1.7538409,2.0472531 0 0 1 0.69638,-1.00162 l 0,-1.66609 A 1.9846094,2.2519786 0 0 0 289.35391,366 Z m -3.27707,5.83461 a 1.6615335,1.8425278 0 0 1 1.66156,1.84257 1.6615335,1.8425278 0 0 1 -1.66156,1.84257 1.6615335,1.8425278 0 0 1 -1.66145,-1.84257 1.6615335,1.8425278 0 0 1 1.66145,-1.84257 z m 3.78465,0.40949 a 1.2923038,1.4330772 0 0 1 1.29231,1.43308 1.2923038,1.4330772 0 0 1 -1.29231,1.43308 1.2923038,1.4330772 0 0 1 -1.2923,-1.43308 1.2923038,1.4330772 0 0 1 1.2923,-1.43308 z m 3.00928,0.38892 a 0.92307415,1.0236265 0 0 1 0.92304,1.02373 0.92307415,1.0236265 0 0 1 -0.92304,1.02359 0.92307415,1.0236265 0 0 1 -0.92317,-1.02359 0.92307415,1.0236265 0 0 1 0.92317,-1.02373 z" />
    <g
       id="text4236"
       style="">
      <path
         id="path20"
         style=""
         d="m 8.3144531,370.63086 0,1.01953 q -0.4570312,-0.23437 -0.9492187,-0.35156 -0.4921875,-0.11719 -1.0195313,-0.11719 -0.8027344,0 -1.2070312,0.24609 -0.3984375,0.2461 -0.3984375,0.73829 0,0.375 0.2871093,0.59179 0.2871094,0.21094 1.1542969,0.4043 l 0.3691406,0.082 q 1.1484375,0.24609 1.6289063,0.69727 0.4863281,0.44531 0.4863281,1.24804 0,0.91407 -0.7265625,1.44727 -0.7207031,0.5332 -1.9863281,0.5332 -0.5273438,0 -1.1015625,-0.10547 -0.5683594,-0.0996 -1.2011719,-0.30468 l 0,-1.11329 q 0.5976563,0.31055 1.1777344,0.46875 0.5800781,0.15235 1.1484375,0.15235 0.7617187,0 1.171875,-0.25781 0.4101562,-0.26368 0.4101562,-0.73829 0,-0.43945 -0.2988281,-0.67382 -0.2929687,-0.23438 -1.2949219,-0.45118 l -0.375,-0.0879 q -1.0019531,-0.21093 -1.4472656,-0.64453 -0.4453125,-0.43945 -0.4453125,-1.20117 0,-0.92578 0.65625,-1.42969 0.65625,-0.5039 1.8632813,-0.5039 0.5976562,0 1.125,0.0879 0.5273437,0.0879 0.9726562,0.26367 z" />
      <path
         id="path22"
         style=""
         d="m 10.277344,374.41016 0,-3.97266 1.078125,0 0,3.93164 q 0,0.93164 0.363281,1.40039 0.363281,0.46289 1.089844,0.46289 0.873047,0 1.376953,-0.55664 0.509766,-0.55664 0.509766,-1.51758 l 0,-3.7207 1.078125,0 0,6.5625 -1.078125,0 0,-1.00781 q -0.392579,0.59765 -0.914063,0.89062 -0.515625,0.28711 -1.201172,0.28711 -1.130859,0 -1.716797,-0.70312 -0.585937,-0.70313 -0.585937,-2.05664 z m 2.71289,-4.13086 0,0 z" />
      <path
         id="path24"
         style=""
         d="m 22.716797,373.72461 q 0,-1.18945 -0.492188,-1.86328 -0.486328,-0.67969 -1.341797,-0.67969 -0.855468,0 -1.347656,0.67969 -0.486328,0.67383 -0.486328,1.86328 0,1.18945 0.486328,1.86914 0.492188,0.67383 1.347656,0.67383 0.855469,0 1.341797,-0.67383 0.492188,-0.67969 0.492188,-1.86914 z m -3.667969,-2.29102 q 0.339844,-0.58593 0.855469,-0.86718 0.521484,-0.28711 1.242187,-0.28711 1.195313,0 1.939453,0.94922 0.75,0.94921 0.75,2.49609 0,1.54687 -0.75,2.49609 -0.74414,0.94922 -1.939453,0.94922 -0.720703,0 -1.242187,-0.28125 -0.515625,-0.28711 -0.855469,-0.87305 l 0,0.98438 -1.083984,0 0,-9.11719 1.083984,0 0,3.55078 z" />
      <path
         id="path26"
         style=""
         d="m 30.732422,371.69727 q 0.404297,-0.72657 0.966797,-1.07227 0.5625,-0.3457 1.324218,-0.3457 1.025391,0 1.582032,0.7207 0.55664,0.71484 0.55664,2.03906 l 0,3.96094 -1.083984,0 0,-3.92578 q 0,-0.94336 -0.333984,-1.40039 -0.333985,-0.45703 -1.019532,-0.45703 -0.83789,0 -1.324218,0.55664 -0.486329,0.55664 -0.486329,1.51758 l 0,3.70898 -1.083984,0 0,-3.92578 q 0,-0.94922 -0.333984,-1.40039 -0.333985,-0.45703 -1.03125,-0.45703 -0.826172,0 -1.3125,0.5625 -0.486328,0.55664 -0.486328,1.51172 l 0,3.70898 -1.083985,0 0,-6.5625 1.083985,0 0,1.01953 q 0.36914,-0.60351 0.884765,-0.89062 0.515625,-0.28711 1.22461,-0.28711 0.714843,0 1.21289,0.36328 0.503906,0.36328 0.744141,1.05469 z" />
      <path
         id="path28"
         style=""
         d="m 40.300781,373.70117 q -1.30664,0 -1.810547,0.29883 -0.503906,0.29883 -0.503906,1.01953 0,0.57422 0.375,0.91406 0.380859,0.33399 1.03125,0.33399 0.896484,0 1.435547,-0.63281 0.544922,-0.63868 0.544922,-1.69336 l 0,-0.24024 -1.072266,0 z m 2.150391,-0.44531 0,3.74414 -1.078125,0 0,-0.99609 q -0.369141,0.59765 -0.919922,0.88476 -0.550781,0.28125 -1.347656,0.28125 -1.007813,0 -1.605469,-0.5625 -0.591797,-0.56836 -0.591797,-1.51758 0,-1.10742 0.738281,-1.66992 0.744141,-0.5625 2.214844,-0.5625 l 1.511719,0 0,-0.10547 q 0,-0.74414 -0.492188,-1.14843 -0.486328,-0.41016 -1.371093,-0.41016 -0.5625,0 -1.095704,0.13476 -0.533203,0.13477 -1.02539,0.4043 l 0,-0.99609 q 0.591797,-0.22852 1.148437,-0.33985 0.556641,-0.11718 1.083985,-0.11718 1.423828,0 2.126953,0.73828 0.703125,0.73828 0.703125,2.23828 z" />
      <path
         id="path30"
         style=""
         d="m 48.480469,371.44531 q -0.181641,-0.10547 -0.398438,-0.15234 -0.210937,-0.0527 -0.46875,-0.0527 -0.914062,0 -1.40625,0.59766 -0.486328,0.5918 -0.486328,1.70508 l 0,3.45703 -1.083984,0 0,-6.5625 1.083984,0 0,1.01953 q 0.339844,-0.59766 0.884766,-0.88476 0.544922,-0.29297 1.324218,-0.29297 0.111329,0 0.246094,0.0176 0.134766,0.0117 0.298828,0.041 l 0.0059,1.10742 z" />
      <path
         id="path32"
         style=""
         d="m 49.623047,370.4375 1.078125,0 0,6.5625 -1.078125,0 0,-6.5625 z m 0,-2.55469 1.078125,0 0,1.36524 -1.078125,0 0,-1.36524 z" />
      <path
         id="path34"
         style=""
         d="m 58.40625,373.03906 0,3.96094 -1.078125,0 0,-3.92578 q 0,-0.93164 -0.363281,-1.39453 -0.363282,-0.46289 -1.089844,-0.46289 -0.873047,0 -1.376953,0.55664 -0.503906,0.55664 -0.503906,1.51758 l 0,3.70898 -1.083985,0 0,-6.5625 1.083985,0 0,1.01953 q 0.386718,-0.5918 0.908203,-0.88476 0.527343,-0.29297 1.21289,-0.29297 1.13086,0 1.710938,0.70312 0.580078,0.69727 0.580078,2.05664 z" />
      <path
         id="path36"
         style=""
         d="m 66.181641,373.44922 0,0.52734 -4.957032,0 q 0.07031,1.11328 0.667969,1.69922 0.603516,0.58008 1.675781,0.58008 0.621094,0 1.201172,-0.15234 0.585938,-0.15235 1.160156,-0.45704 l 0,1.01954 q -0.580078,0.24609 -1.189453,0.375 -0.609375,0.1289 -1.236328,0.1289 -1.570312,0 -2.490234,-0.91406 -0.914063,-0.91406 -0.914063,-2.47266 0,-1.61133 0.867188,-2.55468 0.873047,-0.94922 2.349609,-0.94922 1.324219,0 2.091797,0.85547 0.773438,0.8496 0.773438,2.31445 z m -1.078125,-0.31641 q -0.01172,-0.88476 -0.498047,-1.41211 -0.480469,-0.52734 -1.277344,-0.52734 -0.902344,0 -1.447266,0.50976 -0.539062,0.50977 -0.621093,1.43555 l 3.84375,-0.006 z" />
    </g>
    <g
       id="text4241"
       style="text-anchor:middle">
      <path
         id="path39"
         style="text-anchor:middle"
         d="m 103.11914,3.2519531 1.76367,0 2.23242,5.953125 2.24415,-5.953125 1.76367,0 0,8.7480469 -1.1543,0 0,-7.6816406 -2.25586,5.9999996 -1.18945,0 -2.25586,-5.9999996 0,7.6816406 -1.14844,0 0,-8.7480469 z" />
      <path
         id="path41"
         style="text-anchor:middle"
         d="m 115.97461,6.1933594 q -0.86719,0 -1.37109,0.6796875 -0.50391,0.6738281 -0.50391,1.8515625 0,1.1777344 0.49805,1.8574216 0.5039,0.673828 1.37695,0.673828 0.86133,0 1.36523,-0.679687 0.50391,-0.6796876 0.50391,-1.8515626 0,-1.1660157 -0.50391,-1.8457032 -0.5039,-0.6855468 -1.36523,-0.6855468 z m 0,-0.9140625 q 1.40625,0 2.20898,0.9140625 0.80274,0.9140625 0.80274,2.53125 0,1.6113286 -0.80274,2.5312496 -0.80273,0.914063 -2.20898,0.914063 -1.41211,0 -2.21484,-0.914063 -0.79688,-0.919921 -0.79688,-2.5312496 0,-1.6171875 0.79688,-2.53125 0.80273,-0.9140625 2.21484,-0.9140625 z" />
      <path
         id="path43"
         style="text-anchor:middle"
         d="m 125.08594,6.4335937 0,-3.5507812 1.07812,0 0,9.1171875 -1.07812,0 0,-0.984375 q -0.33985,0.585938 -0.86133,0.873047 -0.51563,0.28125 -1.24219,0.28125 -1.18945,0 -1.93945,-0.949219 -0.74414,-0.949219 -0.74414,-2.4960936 0,-1.546875 0.74414,-2.4960938 0.75,-0.9492187 1.93945,-0.9492187 0.72656,0 1.24219,0.2871093 0.52148,0.28125 0.86133,0.8671875 z m -3.67383,2.2910157 q 0,1.1894531 0.48633,1.8691406 0.49219,0.673828 1.34765,0.673828 0.85547,0 1.34766,-0.673828 0.49219,-0.6796875 0.49219,-1.8691406 0,-1.1894532 -0.49219,-1.8632813 -0.49219,-0.6796875 -1.34766,-0.6796875 -0.85546,0 -1.34765,0.6796875 -0.48633,0.6738281 -0.48633,1.8632813 z" />
      <path
         id="path45"
         style="text-anchor:middle"
         d="m 128.27344,9.4101563 0,-3.9726563 1.07812,0 0,3.9316406 q 0,0.9316404 0.36328,1.4003904 0.36328,0.462891 1.08985,0.462891 0.87304,0 1.37695,-0.556641 0.50977,-0.55664 0.50977,-1.5175779 l 0,-3.7207031 1.07812,0 0,6.5625 -1.07812,0 0,-1.007812 q -0.39258,0.597656 -0.91407,0.890625 -0.51562,0.287109 -1.20117,0.287109 -1.13086,0 -1.7168,-0.703125 -0.58593,-0.703125 -0.58593,-2.0566407 z m 2.71289,-4.1308594 0,0 z" />
      <path
         id="path47"
         style="text-anchor:middle"
         d="m 136.00195,2.8828125 1.07813,0 0,9.1171875 -1.07813,0 0,-9.1171875 z" />
      <path
         id="path49"
         style="text-anchor:middle"
         d="m 144.94336,8.4492188 0,0.5273437 -4.95703,0 q 0.0703,1.1132815 0.66797,1.6992185 0.60351,0.580078 1.67578,0.580078 0.62109,0 1.20117,-0.152343 0.58594,-0.152344 1.16016,-0.457032 l 0,1.019532 q -0.58008,0.246093 -1.18946,0.375 -0.60937,0.128906 -1.23633,0.128906 -1.57031,0 -2.49023,-0.914063 -0.91406,-0.914062 -0.91406,-2.4726559 0,-1.6113281 0.86719,-2.5546875 0.87304,-0.9492187 2.3496,-0.9492187 1.32422,0 2.0918,0.8554687 0.77344,0.8496094 0.77344,2.3144532 z m -1.07813,-0.3164063 q -0.0117,-0.8847656 -0.49804,-1.4121094 -0.48047,-0.5273437 -1.27735,-0.5273437 -0.90234,0 -1.44726,0.5097656 -0.53906,0.5097656 -0.6211,1.4355469 l 3.84375,-0.00586 z" />
      <path
         id="path51"
         style="text-anchor:middle"
         d="m 151.76367,7.8222656 0,3.2050784 1.89844,0 q 0.95508,0 1.41211,-0.392578 0.46289,-0.398438 0.46289,-1.212891 0,-0.8203125 -0.46289,-1.2070312 -0.45703,-0.3925782 -1.41211,-0.3925782 l -1.89844,0 z m 0,-3.5976562 0,2.6367187 1.75195,0 q 0.86719,0 1.28907,-0.3222656 0.42773,-0.328125 0.42773,-0.9960938 0,-0.6621093 -0.42773,-0.9902343 -0.42188,-0.328125 -1.28907,-0.328125 l -1.75195,0 z m -1.18359,-0.9726563 3.02344,0 q 1.35351,0 2.08593,0.5625 0.73242,0.5625 0.73242,1.5996094 0,0.8027344 -0.375,1.2773437 -0.375,0.4746094 -1.10156,0.5917969 0.87305,0.1875 1.35352,0.7851563 0.48633,0.5917969 0.48633,1.4824219 0,1.1718747 -0.79688,1.8105467 Q 155.19141,12 153.7207,12 l -3.14062,0 0,-8.7480469 z" />
      <path
         id="path53"
         style="text-anchor:middle"
         d="m 162.5625,6.4453125 q -0.18164,-0.1054688 -0.39844,-0.1523438 -0.21094,-0.052734 -0.46875,-0.052734 -0.91406,0 -1.40625,0.5976562 -0.48633,0.5917969 -0.48633,1.7050782 l 0,3.4570312 -1.08398,0 0,-6.5625 1.08398,0 0,1.0195312 q 0.33985,-0.5976562 0.88477,-0.8847656 0.54492,-0.2929687 1.32422,-0.2929687 0.11133,0 0.24609,0.017578 0.13477,0.011719 0.29883,0.041016 l 0.006,1.1074219 z" />
      <path
         id="path55"
         style="text-anchor:middle"
         d="m 165.99023,6.1933594 q -0.86718,0 -1.37109,0.6796875 -0.50391,0.6738281 -0.50391,1.8515625 0,1.1777344 0.49805,1.8574216 0.50391,0.673828 1.37695,0.673828 0.86133,0 1.36524,-0.679687 0.5039,-0.6796876 0.5039,-1.8515626 0,-1.1660157 -0.5039,-1.8457032 -0.50391,-0.6855468 -1.36524,-0.6855468 z m 0,-0.9140625 q 1.40625,0 2.20899,0.9140625 0.80273,0.9140625 0.80273,2.53125 0,1.6113286 -0.80273,2.5312496 -0.80274,0.914063 -2.20899,0.914063 -1.41211,0 -2.21484,-0.914063 -0.79687,-0.919921 -0.79687,-2.5312496 0,-1.6171875 0.79687,-2.53125 0.80273,-0.9140625 2.21484,-0.9140625 z" />
      <path
         id="path57"
         style="text-anchor:middle"
         d="m 170.15625,5.4375 1.07812,0 1.34766,5.121094 1.3418,-5.121094 1.27148,0 1.34766,5.121094 1.3418,-5.121094 1.07812,0 L 177.24609,12 175.97461,12 174.5625,6.6210937 173.14453,12 l -1.27148,0 -1.7168,-6.5625 z" />
      <path
         id="path59"
         style="text-anchor:middle"
         d="m 184.78711,5.6308594 0,1.0195312 q -0.45703,-0.234375 -0.94922,-0.3515625 -0.49219,-0.1171875 -1.01953,-0.1171875 -0.80274,0 -1.20703,0.2460938 -0.39844,0.2460937 -0.39844,0.7382812 0,0.375 0.28711,0.5917969 0.28711,0.2109375 1.1543,0.4042969 l 0.36914,0.082031 q 1.14843,0.2460938 1.6289,0.6972657 0.48633,0.4453125 0.48633,1.2480467 0,0.914063 -0.72656,1.447266 -0.7207,0.533203 -1.98633,0.533203 -0.52734,0 -1.10156,-0.105469 -0.56836,-0.09961 -1.20117,-0.304687 l 0,-1.113282 q 0.59765,0.310547 1.17773,0.46875 0.58008,0.152344 1.14844,0.152344 0.76172,0 1.17187,-0.257812 0.41016,-0.263672 0.41016,-0.738282 0,-0.4394527 -0.29883,-0.6738277 -0.29297,-0.234375 -1.29492,-0.4511719 l -0.375,-0.087891 q -1.00195,-0.2109375 -1.44727,-0.6445313 -0.44531,-0.4394531 -0.44531,-1.2011719 0,-0.9257812 0.65625,-1.4296875 0.65625,-0.5039062 1.86328,-0.5039062 0.59766,0 1.125,0.087891 0.52735,0.087891 0.97266,0.2636719 z" />
      <path
         id="path61"
         style="text-anchor:middle"
         d="m 192.47461,8.4492188 0,0.5273437 -4.95703,0 q 0.0703,1.1132815 0.66797,1.6992185 0.60351,0.580078 1.67578,0.580078 0.62109,0 1.20117,-0.152343 0.58594,-0.152344 1.16016,-0.457032 l 0,1.019532 q -0.58008,0.246093 -1.18946,0.375 -0.60937,0.128906 -1.23633,0.128906 -1.57031,0 -2.49023,-0.914063 -0.91406,-0.914062 -0.91406,-2.4726559 0,-1.6113281 0.86719,-2.5546875 0.87304,-0.9492187 2.3496,-0.9492187 1.32422,0 2.0918,0.8554687 0.77344,0.8496094 0.77344,2.3144532 z m -1.07813,-0.3164063 q -0.0117,-0.8847656 -0.49804,-1.4121094 -0.48047,-0.5273437 -1.27735,-0.5273437 -0.90234,0 -1.44726,0.5097656 -0.53906,0.5097656 -0.6211,1.4355469 l 3.84375,-0.00586 z" />
      <path
         id="path63"
         style="text-anchor:middle"
         d="m 198.04687,6.4453125 q -0.18164,-0.1054688 -0.39843,-0.1523438 -0.21094,-0.052734 -0.46875,-0.052734 -0.91407,0 -1.40625,0.5976562 -0.48633,0.5917969 -0.48633,1.7050782 l 0,3.4570312 -1.08399,0 0,-6.5625 1.08399,0 0,1.0195312 q 0.33984,-0.5976562 0.88476,-0.8847656 0.54493,-0.2929687 1.32422,-0.2929687 0.11133,0 0.2461,0.017578 0.13476,0.011719 0.29883,0.041016 l 0.006,1.1074219 z" />
    </g>
  </g>
</svg>
